<?xml version="1.0" standalone="no"?>
<!DOCTYPE svg PUBLIC "-//W3C//DTD SVG 20010904//EN"
 "http://www.w3.org/TR/2001/REC-SVG-20010904/DTD/svg10.dtd">
<svg version="1.0" xmlns="http://www.w3.org/2000/svg"
 width="700.000000pt" height="700.000000pt" viewBox="0 0 700.000000 700.000000"
 preserveAspectRatio="xMidYMid meet">
<metadata>
Created by potrace 1.11, written by Peter Selinger 2001-2013
</metadata>
<g transform="translate(0.000000,700.000000) scale(0.100000,-0.100000)"
fill="#000000" stroke="none">
<path d="M3278 6995 c-2 -1 -41 -5 -88 -9 -47 -4 -96 -8 -110 -11 -14 -2 -45
-7 -70 -9 -25 -3 -54 -7 -65 -10 -11 -2 -40 -7 -65 -10 -25 -3 -101 -20 -170
-36 -69 -17 -136 -33 -150 -36 -60 -13 -324 -106 -425 -149 -129 -55 -284
-133 -374 -187 -34 -21 -65 -38 -68 -38 -4 0 -236 -154 -257 -171 -6 -5 -49
-39 -96 -76 -598 -469 -1035 -1133 -1225 -1859 -14 -54 -32 -130 -40 -169 -8
-38 -16 -79 -18 -90 -3 -11 -8 -40 -12 -65 -3 -25 -9 -58 -11 -74 -3 -16 -7
-50 -9 -75 -3 -25 -8 -82 -12 -126 -15 -156 -8 -603 12 -704 2 -12 6 -47 9
-79 8 -87 33 -210 78 -387 149 -587 444 -1114 871 -1554 80 -82 116 -102 188
-103 92 0 184 79 196 170 7 54 -13 124 -45 159 -13 16 -52 57 -86 93 -88 94
-128 140 -161 185 -17 22 -32 42 -35 45 -40 36 -213 308 -283 443 -238 462
-351 919 -351 1427 0 139 9 320 18 367 3 12 7 48 11 79 28 261 149 653 286
928 226 453 562 851 964 1143 255 185 600 359 875 443 41 12 93 28 116 35 48
16 264 62 326 70 23 3 71 10 106 16 171 27 615 30 747 5 11 -2 45 -7 76 -10
31 -4 67 -9 80 -11 13 -3 51 -10 84 -16 61 -10 195 -42 250 -59 17 -5 62 -19
100 -31 39 -11 84 -27 102 -35 17 -8 35 -14 41 -14 17 0 225 -93 329 -147 56
-29 146 -80 200 -114 54 -33 110 -68 125 -77 16 -10 28 -19 28 -22 0 -3 -67
-6 -150 -6 -148 -1 -150 -1 -197 -30 -139 -86 -129 -279 18 -355 34 -17 67
-18 473 -19 275 0 452 3 476 10 50 14 95 52 122 104 21 40 22 52 22 486 1 480
0 485 -53 543 -88 97 -240 86 -316 -22 l-30 -43 -3 -214 -3 -215 -32 24 c-50
38 -207 147 -212 147 -2 0 -36 21 -76 46 -65 43 -355 193 -424 221 -16 7 -50
21 -75 31 -196 83 -580 188 -760 208 -25 3 -52 7 -60 9 -8 3 -42 7 -75 10 -33
4 -76 9 -95 11 -37 6 -536 14 -542 9z"/>
<path d="M6270 5420 c-105 -29 -169 -117 -157 -216 5 -52 101 -226 149 -273
55 -54 144 -67 222 -32 75 33 124 124 112 205 -7 43 -67 160 -119 233 -45 64
-140 102 -207 83z"/>
<path d="M6572 4614 c-53 -26 -97 -85 -107 -142 -10 -61 39 -251 79 -313 64
-96 214 -112 300 -31 33 31 66 102 66 140 0 41 -48 218 -70 262 -19 38 -65 79
-105 95 -46 18 -115 13 -163 -11z"/>
<path d="M1474 4392 c-51 -9 -89 -28 -120 -61 -95 -99 -67 -256 56 -318 43
-23 51 -23 407 -23 350 0 364 -1 383 -20 25 -25 25 -42 3 -69 -14 -15 -74 -35
-254 -79 -129 -33 -252 -67 -272 -77 -54 -26 -122 -105 -138 -162 -30 -110 -1
-215 83 -293 37 -34 84 -50 324 -110 135 -34 245 -67 255 -76 25 -22 24 -49
-1 -74 -19 -19 -33 -20 -380 -20 -393 0 -404 -1 -463 -58 -106 -101 -61 -294
78 -334 59 -18 770 -16 835 1 161 44 287 167 335 328 30 99 11 245 -44 348
-31 59 -121 147 -179 175 -28 14 -51 28 -52 31 0 4 15 12 33 20 108 44 208
165 242 294 62 239 -68 474 -306 556 -61 21 -81 22 -435 23 -204 0 -379 0
-390 -2z"/>
<path d="M3318 4388 c-230 -26 -420 -201 -467 -431 -24 -122 -22 -841 4 -937
51 -195 216 -356 410 -401 82 -18 407 -15 485 6 96 25 177 72 250 145 107 107
162 242 161 393 -2 244 -175 461 -416 522 -44 11 -119 16 -282 17 l-223 1 0
82 c0 116 25 168 93 194 16 7 153 11 356 11 l329 1 44 28 c113 72 133 219 42
312 -21 21 -54 44 -73 51 -41 13 -601 18 -713 6z m336 -1095 c15 -3 43 -21 61
-39 73 -72 47 -198 -48 -233 -16 -6 -91 -11 -167 -11 -149 0 -182 7 -218 46
-32 34 -42 74 -42 167 l0 78 193 -1 c105 -1 205 -4 221 -7z"/>
<path d="M4869 4388 c-194 -18 -370 -148 -448 -331 -12 -27 -23 -61 -26 -75
-3 -15 -7 -38 -10 -52 -3 -14 -5 -209 -6 -435 0 -451 3 -473 63 -592 28 -57
108 -151 164 -194 42 -32 150 -78 215 -91 64 -13 373 -16 429 -5 241 51 417
236 448 472 4 33 7 238 6 455 l-1 395 -27 79 c-15 43 -43 103 -62 132 -75 113
-212 208 -339 234 -68 14 -293 19 -406 8z m351 -416 c19 -9 45 -32 57 -51 23
-34 23 -35 23 -420 0 -433 1 -424 -74 -470 -33 -21 -45 -22 -193 -19 -149 3
-160 4 -190 27 -59 44 -61 58 -61 464 0 355 1 369 22 409 34 68 66 78 236 78
118 0 151 -3 180 -18z"/>
<path d="M6735 3778 c-48 -17 -94 -56 -117 -101 -18 -36 -22 -60 -23 -162 -2
-137 10 -186 56 -232 110 -113 290 -71 338 79 16 47 12 243 -4 292 -15 43 -56
91 -98 113 -37 19 -113 24 -152 11z"/>
<path d="M6624 2911 c-65 -30 -97 -78 -129 -194 -38 -142 -39 -176 -7 -239 77
-151 293 -146 358 8 23 54 64 213 64 249 0 43 -35 114 -72 147 -56 50 -142 61
-214 29z"/>
<path d="M6339 2116 c-66 -24 -94 -53 -159 -166 -57 -101 -64 -118 -64 -169
-1 -109 73 -188 184 -198 49 -5 65 -2 106 21 56 31 85 67 150 192 41 80 45 93
41 139 -8 84 -47 142 -115 172 -49 21 -102 24 -143 9z"/>
<path d="M5821 1419 c-23 -7 -68 -44 -131 -107 -79 -80 -99 -105 -109 -144
-45 -162 108 -303 263 -244 52 20 210 173 232 224 52 126 -35 271 -168 278
-29 2 -68 -1 -87 -7z"/>
<path d="M1688 864 c-114 -58 -146 -223 -61 -309 32 -32 108 -82 185 -122 63
-32 153 -37 205 -10 111 58 142 218 59 308 -17 20 -79 62 -136 95 -125 70
-174 78 -252 38z"/>
<path d="M5053 821 c-149 -85 -178 -124 -175 -238 2 -60 47 -125 110 -161 45
-25 169 -20 192 7 5 6 25 17 113 63 21 12 52 34 69 51 109 110 65 289 -83 336
-65 21 -105 11 -226 -58z"/>
<path d="M2510 528 c-114 -33 -176 -163 -128 -270 36 -81 78 -108 229 -143 9
-2 34 -8 55 -14 60 -17 95 -13 150 14 114 56 148 210 68 305 -34 40 -68 57
-173 86 -108 30 -157 35 -201 22z"/>
<path d="M4308 511 c-126 -33 -163 -53 -200 -106 -92 -133 12 -320 172 -310
25 1 54 5 65 8 108 28 172 49 198 65 70 40 108 145 85 230 -20 72 -117 143
-193 141 -11 0 -68 -13 -127 -28z"/>
<path d="M3355 393 c-81 -24 -136 -100 -137 -188 -1 -68 31 -128 90 -170 42
-29 49 -30 166 -33 74 -3 139 1 166 8 54 14 120 78 136 130 31 100 -19 206
-115 248 -46 20 -244 23 -306 5z"/>
</g>
</svg>
